<svg width="24" height="24" viewBox="0 0 24 24" fill="none" xmlns="http://www.w3.org/2000/svg">
<path d="M19.0013 7.0013H17.3346L16.2763 5.94297C15.8935 5.55982 15.3762 5.34151 14.8346 5.33464H12.7513C12.6346 4.86697 12.3675 4.45057 11.9911 4.14946C11.6147 3.84835 11.1499 3.67918 10.668 3.66797V8.96797C10.7108 9.80957 11.0435 10.6104 11.6096 11.2346C12.5418 12.1307 13.761 12.668 15.0513 12.7513L17.9263 11.6013C18.2636 11.4659 18.5674 11.2586 18.8164 10.9937C19.0653 10.7289 19.2536 10.413 19.368 10.068L19.8346 8.79297C19.8473 8.70732 19.8473 8.62028 19.8346 8.53464V7.83464C19.8346 7.61362 19.7468 7.40166 19.5906 7.24538C19.4343 7.0891 19.2223 7.0013 19.0013 7.0013ZM14.8346 8.66797C14.6698 8.66797 14.5087 8.6191 14.3717 8.52753C14.2346 8.43596 14.1278 8.30581 14.0647 8.15354C14.0017 8.00127 13.9852 7.83371 14.0173 7.67206C14.0495 7.51041 14.1288 7.36192 14.2454 7.24538C14.3619 7.12884 14.5104 7.04947 14.6721 7.01731C14.8337 6.98516 15.0013 7.00166 15.1535 7.06474C15.3058 7.12781 15.436 7.23462 15.5275 7.37166C15.6191 7.5087 15.668 7.66982 15.668 7.83464C15.668 8.05565 15.5802 8.26761 15.4239 8.42389C15.2676 8.58017 15.0557 8.66797 14.8346 8.66797Z" fill="#58586A"/>
<path d="M10.9846 11.7833C10.4033 11.1467 10.0235 10.3522 9.89297 9.5H6.5013C6.27862 9.51473 6.05536 9.48172 5.84647 9.40317C5.63758 9.32462 5.44789 9.20235 5.29008 9.04455C5.13228 8.88675 5.01001 8.69705 4.93146 8.48816C4.85292 8.27927 4.8199 8.05601 4.83464 7.83333C4.83464 7.61232 4.74684 7.40036 4.59056 7.24408C4.43428 7.0878 4.22232 7 4.0013 7C3.78029 7 3.56833 7.0878 3.41205 7.24408C3.25577 7.40036 3.16797 7.61232 3.16797 7.83333C3.17634 8.41164 3.31296 8.98088 3.56797 9.5C3.84909 10.0451 4.29139 10.4903 4.83464 10.775V20.3333H7.33464V16.1667H12.3346V20.3333H14.8346V13.5583C13.3809 13.4438 12.0158 12.8144 10.9846 11.7833Z" fill="#58586A"/>
</svg>
