<svg preserveAspectRatio="none" width="100%" height="100%" overflow="visible" style="display: block;" viewBox="0 0 17 17" fill="none" xmlns="http://www.w3.org/2000/svg">
<g id="Icon">
<path id="Vector" d="M15.5125 3.25833C15.725 2.40833 15.2292 2.05417 14.45 2.3375L2.26667 7.0125C1.41667 7.36667 1.41667 7.8625 2.125 8.075L5.24167 9.06667L6.44583 12.75C6.5875 13.175 6.51667 13.3167 7.0125 13.3167C7.36667 13.3167 7.50833 13.175 7.72083 12.9625L9.42083 11.3333L12.9625 13.9542C13.6 14.3083 14.0958 14.1667 14.2375 13.3167L15.5125 3.25833ZM6.44583 8.7125L13.3875 4.32083C13.7417 4.10833 14.0958 4.32083 13.8125 4.60417L7.8625 9.9875L7.65 12.325L6.44583 8.7125Z" fill="var(--fill-0, #D5D5D5)"/>
</g>
</svg>
