<svg preserveAspectRatio="none" width="100%" height="100%" overflow="visible" style="display: block;" viewBox="0 0 17 17" fill="none" xmlns="http://www.w3.org/2000/svg">
<g id="Icon" clip-path="url(#clip0_0_6)">
<path id="Vector" d="M13.1474 9.32025C12.3668 9.32025 11.6351 8.98946 10.97 8.45112L11.1315 7.68896L11.1371 7.65921C11.2837 6.84958 11.7385 5.49171 13.1481 5.49171C14.2049 5.49171 15.0627 6.35021 15.0627 7.40633C15.062 8.46104 14.2042 9.32025 13.1474 9.32025ZM13.1474 3.55442C11.3489 3.55442 9.95279 4.72246 9.38613 6.647C8.52196 5.34792 7.86463 3.78817 7.48283 2.4735H5.54483V7.51117C5.54342 8.50708 4.73663 9.31458 3.74071 9.316C2.7455 9.31458 1.93942 8.50638 1.938 7.51117V2.4735H2.38419e-07V7.51117C2.38419e-07 9.57525 1.67875 11.2675 3.74071 11.2675C5.80408 11.2675 7.48283 9.57525 7.48283 7.51117V6.66825C7.85754 7.45237 8.32008 8.24712 8.88108 8.94979L7.69604 14.5265H9.67725L10.5365 10.4819C11.2894 10.9629 12.155 11.2675 13.1474 11.2675C15.2724 11.2675 17 9.53062 17 7.40704C17 5.28204 15.2724 3.55442 13.1474 3.55442Z" fill="var(--fill-0, #D5D5D5)"/>
</g>
<defs>
<clipPath id="clip0_0_6">
<rect width="17" height="17" fill="white"/>
</clipPath>
</defs>
</svg>
