<svg preserveAspectRatio="none" width="100%" height="100%" overflow="visible" style="display: block;" viewBox="0 0 17 17" fill="none" xmlns="http://www.w3.org/2000/svg">
<g id="Icon">
<path id="Vector" d="M8.5 1.41667C6.81701 1.41545 5.18857 2.01352 3.90642 3.10373C2.62427 4.19394 1.77219 5.70505 1.50284 7.36635C1.23349 9.02765 1.56446 10.7306 2.43646 12.17C3.30846 13.6095 4.66451 14.6915 6.26167 15.2221C6.61583 15.2929 6.74333 15.0662 6.74333 14.8821V13.6779C4.77417 14.1029 4.35625 12.8279 4.35625 12.8279C4.03042 12.0133 3.57 11.7937 3.57 11.7937C2.9325 11.3546 3.61958 11.3617 3.61958 11.3617C4.32792 11.4113 4.69625 12.0842 4.69625 12.0842C5.31958 13.1608 6.33958 12.8492 6.74333 12.6721C6.80708 12.2187 6.99125 11.9071 7.18958 11.73C5.61708 11.5458 3.95958 10.9367 3.95958 8.20958C3.95958 7.43042 4.23583 6.79292 4.68917 6.28292C4.61833 6.10583 4.37042 5.36917 4.76 4.3775C4.76 4.3775 5.36208 4.18625 6.72917 5.10708C7.90508 4.78871 9.1445 4.78871 10.3204 5.10708C11.6875 4.18625 12.2896 4.3775 12.2896 4.3775C12.6792 5.36917 12.4313 6.10583 12.3604 6.28292C12.8138 6.79292 13.09 7.43042 13.09 8.20958C13.09 10.9438 11.4325 11.5387 9.85292 11.73C10.1079 11.9496 10.3346 12.3746 10.3346 13.0333V14.9671C10.3346 15.1512 10.4621 15.385 10.8233 15.3142C12.5116 14.8479 13.9673 13.7726 14.9093 12.296C15.8512 10.8193 16.2127 9.04605 15.9239 7.31852C15.6351 5.59099 14.7165 4.03171 13.3455 2.94176C11.9744 1.85181 10.2482 1.30848 8.5 1.41667Z" fill="var(--fill-0, #D5D5D5)"/>
</g>
</svg>
