<svg preserveAspectRatio="none" width="100%" height="100%" overflow="visible" style="display: block;" viewBox="0 0 17 17" fill="none" xmlns="http://www.w3.org/2000/svg">
<g id="Icon">
<path id="Vector" d="M3.5275 2.47917C3.29588 2.4801 3.06671 2.52664 2.85308 2.61614C2.63945 2.70563 2.44554 2.83633 2.28242 3.00077C2.11929 3.1652 1.99016 3.36016 1.90238 3.5745C1.8146 3.78885 1.7699 4.01838 1.77083 4.25C1.77176 4.48162 1.81831 4.71079 1.9078 4.92442C1.9973 5.13805 2.128 5.33196 2.29243 5.49509C2.45687 5.65821 2.65183 5.78734 2.86617 5.87512C3.08051 5.9629 3.31005 6.0076 3.54167 6.00667C4.00944 6.00479 4.45731 5.81716 4.78675 5.48507C5.11619 5.15297 5.30021 4.70361 5.29833 4.23583C5.29645 3.76806 5.10883 3.32019 4.77673 2.99075C4.44464 2.66131 3.99528 2.47729 3.5275 2.47917ZM2.125 6.375H4.95833V14.875H2.125V6.375ZM7.08333 6.375H9.775V7.57917H9.81042C10.1858 6.87083 11.1137 6.12 12.495 6.12C14.9175 6.12 15.5833 7.65 15.5833 9.91667V14.875H12.75V10.4833C12.75 9.435 12.7287 8.08917 11.2908 8.08917C9.83167 8.08917 9.61208 9.2225 9.61208 10.4054V14.875H6.77875L7.08333 6.375Z" fill="var(--fill-0, #D5D5D5)"/>
</g>
</svg>
